<svg viewBox="0 0 768 256" xmlns="http://www.w3.org/2000/svg"><path d="M109 128v-14h24V98h-24V84h24V69h-24V53h30V43c15 10 23 28 26 54h-20v133h98V97h-23V48c0-3 0-4 2-5l6-1c5 0 8 2 9 5 1 5 2 14 2 29l20-7c0-22-2-35-5-40-4-6-13-9-28-9l-20 2c-6 2-9 7-9 15v60h-9v-2c-2-19-6-35-13-47s-19-23-35-31l-14 18H63V21H40v86L28 95l-12 20c17 15 31 33 41 52H22v19h20l-17 12c11 12 19 26 25 42l23-4c-1-5-3-9-6-14h68v-19H95l-6-17h50v-19H80l-13-23h22c4 8 6 15 8 22l22-6-8-16h27v-16h-29Zm571 73 26 34 24-12c-14-17-29-34-47-51h69v-20h-92l-32-22h90V17h-27v11h-96V17h-26v79l-43-20-14 22c41 14 78 32 112 54H517v20h92v23h-62v19h62v25h27v-25h44v-13Zm-373-14c-9 12-20 24-33 34l18 17c12-9 24-20 35-33l-20-18Zm165 49h25V41c0-10-4-16-10-19l-17-2-29 2-5 23 29-2 6 2 1 6v185Zm-60-6V74h-76v156h76Zm17-8h24V75h-24v147Zm-261-12v-19h52v19h-52Zm190 0v-26h33v26h-33Zm-287-7H57l-14-17h22l6 17Zm603-8h-38v-23h15l23 23Zm-373-66c-13 16-25 28-35 36l19 17c11-9 22-20 35-35l-19-18Zm-133 44v-19h52v19h-52Zm190-7v-26h33v26h-33Zm-190-30v-20h52v20h-52Zm-82-8H63v-14h23v14Zm272-5V94h33v29h-33Zm-90-88c14 21 27 49 39 82l21-13c-10-31-22-60-38-88l-22 19Zm329 76h-1l-1-1V90h96v21h-94ZM86 98H63V84h23v14Zm318-76c-6 15-13 29-22 41l18 10c10-11 18-23 25-38l-21-13Zm-83 11c12 11 21 24 27 39l21-11c-8-19-18-34-29-43l-19 15Zm274 38V48h96v23h-96ZM86 69H63V53h23v16Z" fill="#f00" stroke="#ff0"/></svg>