<svg width="1024" height="512" viewBox="0 0 1024 512" xmlns="http://www.w3.org/2000/svg"><rect width="1024" height="512" fill="#fff"/><path d="M142 240c40 0 47 3 47 37v22h-78v18h68v49H16v-16h78v-17H24c-1-16-4-35-7-50h59c-18-18-43-29-73-37l11-16c35 12 60 26 80 53v-57h17v57h61v-8c0-17-1-18-37-18l7-17Zm21 93h-52v17h52v-17Zm-69-34H36l3 18h55v-18Zm99 93v14h-57l5 10-18 4c-6-13-17-29-31-39l15-12c7 6 14 14 20 23h16c5-8 9-17 11-23l18 6-11 17h32Zm-89 0v14H52l5 11-18 3c-6-15-19-30-34-41l13-12c10 7 18 16 24 25h15l10-23 18 6-10 17h29Zm118-153h115v20h-87c1 13 9 21 34 37l21 13c22 14 33 31 33 53 0 32-24 51-55 51-34 0-57-22-57-57v-4h22v3c0 25 13 38 34 38s33-12 33-32c0-16-7-26-23-36l-30-19a77 77 0 0 1-40-67Zm247-3c-6 12-19 35-27 46l-13-7 8-15-40-8v30h61v77h-77V250l-17-1 3-18c26 3 56 8 78 14l9-18 15 9Zm-27 92h-45v16h45v-16Zm0-31h-45v17h45v-17Zm49-71v115h38v-60c0-14 0-15-24-15h-5l6-18c38 1 40 5 40 33v77h-72V226h17Zm43 141-12 21h30v16h-56l5 12-18 4c-6-18-16-36-34-49l14-13c9 8 18 18 25 30h16c5-9 10-20 12-28l18 7Zm-89 0c-3 5-6 14-11 21h29v16h-51l5 13-18 3c-6-20-19-36-35-49l13-12c10 8 19 18 26 29h13c5-9 9-20 12-28l17 7ZM89 104c23 0 32 11 32 24 0 12-9 20-24 23l-14 3c-10 2-14 6-14 12 0 9 7 14 18 14 13 0 20-6 21-16h10c-1 15-12 24-30 24-19 0-29-9-29-23 0-13 10-18 23-21l11-2c13-3 17-7 17-15 0-9-6-15-20-15s-23 6-24 20H56c2-19 13-28 33-28Zm97 32c0 18-10 29-26 29-18 0-28-12-28-30s10-31 28-31c13 0 22 7 26 19l-10 1c-2-7-7-11-16-11-10 0-17 6-18 19h44v4Zm-26 21c9 0 15-6 17-17h-34c1 11 7 17 17 17Zm65-53c15 0 23 8 25 22h-9c-2-8-7-13-15-13-12 0-18 8-18 22s6 22 18 22c8 0 13-4 14-12h10c-2 13-11 21-24 21-17 0-28-12-28-32 0-19 11-30 27-30Zm52 52h13v8h-13v18h-11v-18h-8v-8h8v-38c0-9 4-13 14-13h10v9h-7c-5 0-6 2-6 6v36Zm26 19h10v11h-10v-11Zm0-70h10v59h-10v-59Zm53-1c17 0 29 13 29 31 0 19-12 31-28 31-17 0-29-12-29-31s11-31 28-31Zm0 9c-11 0-17 8-17 22 0 13 6 22 17 22 12 0 18-9 18-22s-6-22-18-22Zm73 53c-9 0-16-4-20-10v8h-10v-59h11v33c0 14 8 18 16 18s12-4 12-12v-39h11v41c0 12-8 20-20 20Zm69-61h54v10h-41c0 6 4 10 16 17l10 6c10 7 15 15 15 25 0 15-11 24-26 24-16 0-27-10-27-27v-1h11v1c0 12 6 18 16 18 9 0 15-6 15-15 0-8-3-12-11-17l-14-9c-13-8-17-18-18-32Zm423 166H651v-52h270L794 92h73l154 153-154 153h-73l127-127Z" fill="#000"/></svg>