<svg viewBox="0 0 512 768" xmlns="http://www.w3.org/2000/svg" fill="#fff" font-size="24" font-family="Arial">
<filter id="f">
  <feGaussianBlur stdDeviation="4"/>
</filter>
<g transform="translate(0 192)" id="4">
  <path d="M50 109C16 109 0 92 0 64s16-45 50-45c33 0 49 17 49 45s-16 45-49 45Zm0-22c9 0 14-5 14-23s-5-23-14-23c-10 0-15 5-15 23s5 23 15 23Zm138-26c11 3 18 12 18 20 0 16-12 26-40 26h-57V21h56c28 0 37 11 37 22 0 8-5 15-14 18Zm-25 25c6 0 8-2 8-6s-2-6-8-6h-21v12h21Zm-4-44h-17v12h17c5 0 8-2 8-6s-3-6-8-6Zm105 8c27 0 37 14 37 27 0 21-20 32-44 32-23 0-42-10-45-28h32c1 4 5 7 13 7 9 0 13-4 13-11 0-6-4-10-13-10-7 0-11 2-13 5h-31l11-51h73v22h-47l-3 10c5-2 10-3 17-3Zm114-29h34l-35 86h-41l-35-86h34l12 32 10 29 10-29 11-32Zm131 77 3 9h-34c-2-3-2-5-2-9l-1-8c0-9-3-11-13-11h-12v28h-34V21h53c31 0 40 12 40 25 0 11-5 17-16 21 10 3 14 9 15 18l1 13Zm-46-39c8 0 12-2 12-8s-4-9-12-9h-13v17h13Z" fill="#000" stroke="#fff"/>
</g>
<g transform="translate(0 144)" id="3">
  <path d="M50 109C16 109 0 92 0 64s16-45 50-45c33 0 49 17 49 45s-16 45-49 45Zm0-22c9 0 14-5 14-23s-5-23-14-23c-10 0-15 5-15 23s5 23 15 23Zm138-26c11 3 18 12 18 20 0 16-12 26-40 26h-57V21h56c28 0 37 11 37 22 0 8-5 15-14 18Zm-25 25c6 0 8-2 8-6s-2-6-8-6h-21v12h21Zm-4-44h-17v12h17c5 0 8-2 8-6s-3-6-8-6Zm105 8c27 0 37 14 37 27 0 21-20 32-44 32-23 0-42-10-45-28h32c1 4 5 7 13 7 9 0 13-4 13-11 0-6-4-10-13-10-7 0-11 2-13 5h-31l11-51h73v22h-47l-3 10c5-2 10-3 17-3Zm114-29h34l-35 86h-41l-35-86h34l12 32 10 29 10-29 11-32Zm131 77 3 9h-34c-2-3-2-5-2-9l-1-8c0-9-3-11-13-11h-12v28h-34V21h53c31 0 40 12 40 25 0 11-5 17-16 21 10 3 14 9 15 18l1 13Zm-46-39c8 0 12-2 12-8s-4-9-12-9h-13v17h13Z" stroke-width="8" stroke="#000"/>
  <path d="M50 109C16 109 0 92 0 64s16-45 50-45c33 0 49 17 49 45s-16 45-49 45Zm0-22c9 0 14-5 14-23s-5-23-14-23c-10 0-15 5-15 23s5 23 15 23Zm138-26c11 3 18 12 18 20 0 16-12 26-40 26h-57V21h56c28 0 37 11 37 22 0 8-5 15-14 18Zm-25 25c6 0 8-2 8-6s-2-6-8-6h-21v12h21Zm-4-44h-17v12h17c5 0 8-2 8-6s-3-6-8-6Zm105 8c27 0 37 14 37 27 0 21-20 32-44 32-23 0-42-10-45-28h32c1 4 5 7 13 7 9 0 13-4 13-11 0-6-4-10-13-10-7 0-11 2-13 5h-31l11-51h73v22h-47l-3 10c5-2 10-3 17-3Zm114-29h34l-35 86h-41l-35-86h34l12 32 10 29 10-29 11-32Zm131 77 3 9h-34c-2-3-2-5-2-9l-1-8c0-9-3-11-13-11h-12v28h-34V21h53c31 0 40 12 40 25 0 11-5 17-16 21 10 3 14 9 15 18l1 13Zm-46-39c8 0 12-2 12-8s-4-9-12-9h-13v17h13Z" fill="#000" stroke="#fff"/>
</g>
<g transform="translate(0 96)" id="2">
  <path d="M50 109C16 109 0 92 0 64s16-45 50-45c33 0 49 17 49 45s-16 45-49 45Zm0-22c9 0 14-5 14-23s-5-23-14-23c-10 0-15 5-15 23s5 23 15 23Zm138-26c11 3 18 12 18 20 0 16-12 26-40 26h-57V21h56c28 0 37 11 37 22 0 8-5 15-14 18Zm-25 25c6 0 8-2 8-6s-2-6-8-6h-21v12h21Zm-4-44h-17v12h17c5 0 8-2 8-6s-3-6-8-6Zm105 8c27 0 37 14 37 27 0 21-20 32-44 32-23 0-42-10-45-28h32c1 4 5 7 13 7 9 0 13-4 13-11 0-6-4-10-13-10-7 0-11 2-13 5h-31l11-51h73v22h-47l-3 10c5-2 10-3 17-3Zm114-29h34l-35 86h-41l-35-86h34l12 32 10 29 10-29 11-32Zm131 77 3 9h-34c-2-3-2-5-2-9l-1-8c0-9-3-11-13-11h-12v28h-34V21h53c31 0 40 12 40 25 0 11-5 17-16 21 10 3 14 9 15 18l1 13Zm-46-39c8 0 12-2 12-8s-4-9-12-9h-13v17h13Z" stroke-width="8" stroke="#000"/>
  <path d="M50 109C16 109 0 92 0 64s16-45 50-45c33 0 49 17 49 45s-16 45-49 45Zm0-22c9 0 14-5 14-23s-5-23-14-23c-10 0-15 5-15 23s5 23 15 23Zm138-26c11 3 18 12 18 20 0 16-12 26-40 26h-57V21h56c28 0 37 11 37 22 0 8-5 15-14 18Zm-25 25c6 0 8-2 8-6s-2-6-8-6h-21v12h21Zm-4-44h-17v12h17c5 0 8-2 8-6s-3-6-8-6Zm105 8c27 0 37 14 37 27 0 21-20 32-44 32-23 0-42-10-45-28h32c1 4 5 7 13 7 9 0 13-4 13-11 0-6-4-10-13-10-7 0-11 2-13 5h-31l11-51h73v22h-47l-3 10c5-2 10-3 17-3Zm114-29h34l-35 86h-41l-35-86h34l12 32 10 29 10-29 11-32Zm131 77 3 9h-34c-2-3-2-5-2-9l-1-8c0-9-3-11-13-11h-12v28h-34V21h53c31 0 40 12 40 25 0 11-5 17-16 21 10 3 14 9 15 18l1 13Zm-46-39c8 0 12-2 12-8s-4-9-12-9h-13v17h13Z" fill="#000" stroke="#fff"/>
</g>
<g transform="translate(0 48)" id="1">
  <path d="M50 109C16 109 0 92 0 64s16-45 50-45c33 0 49 17 49 45s-16 45-49 45Zm0-22c9 0 14-5 14-23s-5-23-14-23c-10 0-15 5-15 23s5 23 15 23Zm138-26c11 3 18 12 18 20 0 16-12 26-40 26h-57V21h56c28 0 37 11 37 22 0 8-5 15-14 18Zm-25 25c6 0 8-2 8-6s-2-6-8-6h-21v12h21Zm-4-44h-17v12h17c5 0 8-2 8-6s-3-6-8-6Zm105 8c27 0 37 14 37 27 0 21-20 32-44 32-23 0-42-10-45-28h32c1 4 5 7 13 7 9 0 13-4 13-11 0-6-4-10-13-10-7 0-11 2-13 5h-31l11-51h73v22h-47l-3 10c5-2 10-3 17-3Zm114-29h34l-35 86h-41l-35-86h34l12 32 10 29 10-29 11-32Zm131 77 3 9h-34c-2-3-2-5-2-9l-1-8c0-9-3-11-13-11h-12v28h-34V21h53c31 0 40 12 40 25 0 11-5 17-16 21 10 3 14 9 15 18l1 13Zm-46-39c8 0 12-2 12-8s-4-9-12-9h-13v17h13Z" stroke-width="8" stroke="#000"/>
  <path d="M50 109C16 109 0 92 0 64s16-45 50-45c33 0 49 17 49 45s-16 45-49 45Zm0-22c9 0 14-5 14-23s-5-23-14-23c-10 0-15 5-15 23s5 23 15 23Zm138-26c11 3 18 12 18 20 0 16-12 26-40 26h-57V21h56c28 0 37 11 37 22 0 8-5 15-14 18Zm-25 25c6 0 8-2 8-6s-2-6-8-6h-21v12h21Zm-4-44h-17v12h17c5 0 8-2 8-6s-3-6-8-6Zm105 8c27 0 37 14 37 27 0 21-20 32-44 32-23 0-42-10-45-28h32c1 4 5 7 13 7 9 0 13-4 13-11 0-6-4-10-13-10-7 0-11 2-13 5h-31l11-51h73v22h-47l-3 10c5-2 10-3 17-3Zm114-29h34l-35 86h-41l-35-86h34l12 32 10 29 10-29 11-32Zm131 77 3 9h-34c-2-3-2-5-2-9l-1-8c0-9-3-11-13-11h-12v28h-34V21h53c31 0 40 12 40 25 0 11-5 17-16 21 10 3 14 9 15 18l1 13Zm-46-39c8 0 12-2 12-8s-4-9-12-9h-13v17h13Z" fill="#000" stroke="#fff"/>
</g>
<g id="0">
  <path d="M50 109C16 109 0 92 0 64s16-45 50-45c33 0 49 17 49 45s-16 45-49 45Zm0-22c9 0 14-5 14-23s-5-23-14-23c-10 0-15 5-15 23s5 23 15 23Zm138-26c11 3 18 12 18 20 0 16-12 26-40 26h-57V21h56c28 0 37 11 37 22 0 8-5 15-14 18Zm-25 25c6 0 8-2 8-6s-2-6-8-6h-21v12h21Zm-4-44h-17v12h17c5 0 8-2 8-6s-3-6-8-6Zm105 8c27 0 37 14 37 27 0 21-20 32-44 32-23 0-42-10-45-28h32c1 4 5 7 13 7 9 0 13-4 13-11 0-6-4-10-13-10-7 0-11 2-13 5h-31l11-51h73v22h-47l-3 10c5-2 10-3 17-3Zm114-29h34l-35 86h-41l-35-86h34l12 32 10 29 10-29 11-32Zm131 77 3 9h-34c-2-3-2-5-2-9l-1-8c0-9-3-11-13-11h-12v28h-34V21h53c31 0 40 12 40 25 0 11-5 17-16 21 10 3 14 9 15 18l1 13Zm-46-39c8 0 12-2 12-8s-4-9-12-9h-13v17h13Z" stroke-width="8" stroke="#000"/>
  <path d="M50 109C16 109 0 92 0 64s16-45 50-45c33 0 49 17 49 45s-16 45-49 45Zm0-22c9 0 14-5 14-23s-5-23-14-23c-10 0-15 5-15 23s5 23 15 23Zm138-26c11 3 18 12 18 20 0 16-12 26-40 26h-57V21h56c28 0 37 11 37 22 0 8-5 15-14 18Zm-25 25c6 0 8-2 8-6s-2-6-8-6h-21v12h21Zm-4-44h-17v12h17c5 0 8-2 8-6s-3-6-8-6Zm105 8c27 0 37 14 37 27 0 21-20 32-44 32-23 0-42-10-45-28h32c1 4 5 7 13 7 9 0 13-4 13-11 0-6-4-10-13-10-7 0-11 2-13 5h-31l11-51h73v22h-47l-3 10c5-2 10-3 17-3Zm114-29h34l-35 86h-41l-35-86h34l12 32 10 29 10-29 11-32Zm131 77 3 9h-34c-2-3-2-5-2-9l-1-8c0-9-3-11-13-11h-12v28h-34V21h53c31 0 40 12 40 25 0 11-5 17-16 21 10 3 14 9 15 18l1 13Zm-46-39c8 0 12-2 12-8s-4-9-12-9h-13v17h13Z"/>
</g>
<g transform="translate(0 312)">
  <rect width="512" height="32" id="5"/>
  <path d="m126 53-2-6h-23l-2 6H83l20-45h19l21 45h-17Zm-20-16h13l-4-11-3-7-2 7-4 11Zm67-29c14 0 22 6 22 16 0 9-8 15-22 15h-11v14h-16V8h27Zm-1 21c4 0 7-2 7-5 0-4-3-5-7-5h-10v10h10Zm76 19 2 5h-17l-1-5v-5c0-5-3-6-8-6h-8v16h-16V8h28c16 0 21 6 21 13 0 5-3 9-9 11 7 2 8 6 8 10v6Zm-32-20h10c4 0 7-2 7-5s-3-5-7-5h-10v10Zm39 25V8h16v45h-16Zm40-11h25v11h-41V8h16v34Zm85-32c7 4 10 10 10 19 0 16-8 25-24 25-12 0-21-5-23-13h15c1 3 3 4 8 4 6 0 9-3 10-12-3 3-8 5-14 5-13 0-19-8-19-15 0-10 10-16 23-16 5 0 10 1 14 3Zm-14 19c5 0 8-3 8-6 0-4-3-7-8-7-6 0-9 3-9 7 0 3 3 6 9 6ZM568 7c21 0 35 10 35 24 0 10-6 17-17 17-6 0-10-2-12-5-2 3-6 5-11 5-7 0-14-4-14-14s7-14 14-14c5 0 7 1 10 3v-3h12v17c0 2 1 3 3 3 4 0 5-4 5-9 0-10-8-17-25-17-16 0-25 8-25 20 0 13 11 20 26 20 6 0 12-1 17-3v7c-6 2-12 2-17 2-22 0-36-10-36-26 0-15 13-27 35-27Zm0 33c3 0 5-2 5-6s-2-6-5-6c-4 0-6 2-6 6s2 6 6 6Zm105-21h-28v6h26v11h-26v6h28v11h-44V8h44v11Zm86-11h17l-15 45h-18l-4-13-4-17-3 17-4 13h-18L695 8h17l3 13 5 18 4-18 4-13h15l4 13 4 18 5-18 3-13Zm65 11h-29v6h27v11h-27v6h29v11h-44V8h44v11Zm55 29 1 5h-16l-1-5-1-5c0-5-3-6-7-6h-9v16h-16V8h28c16 0 21 6 21 13 0 5-2 9-8 11 6 2 7 6 7 10l1 6Zm-33-20h10c5 0 7-2 7-5s-2-5-7-5h-10v10Zm95-20-22 18 22 27h-19l-14-18-7 5v13h-16V8h16v18l21-18h19ZM427 35c-10 0-15-4-15-10h10c0 4 2 4 6 4 3 0 5-1 5-2 0-2-2-2-6-3h-2c-8-1-12-4-12-9 0-4 4-8 14-8 9 0 14 3 14 9h-9c0-2-1-3-5-3-3 0-4 0-4 2 0 1 1 2 5 2l2 1c9 1 12 3 12 8 0 6-6 9-15 9Zm33 0c-8 0-15-4-15-11V8h9v16c0 3 3 4 6 4 4 0 6-1 6-4V8h9v16c0 7-6 11-15 11Zm41-27h9v26h-10l-7-9-5-7v16h-9V8h10l8 9 4 7V8Z" fill="#000" id="6" transform="scale(.5.5)"/>
</g>
<g transform="translate(456 260)" stroke-width="6" id="7">
  <circle r="58" fill="#000" filter="url(#f)"/>
  <circle r="54" fill="#fff"/>
  <g id="8">
    <circle r="41" stroke="#000" stroke-dasharray="0 80 10 120 60"/>
    <circle r="37" stroke="#000"/>
    <circle r="32" stroke="#000" stroke-dasharray="10 10 6 15 15 15 30 30 15 10 6 60"/>
    <circle r="22" stroke="#000"/>
    <circle r="19" stroke="#000" stroke-dasharray="30 23 20 5 28 5 60"/>
    <circle r="14" stroke="#000" stroke-dasharray="0 8 8 27 5 17 10 2000"/>
    <circle r="11" stroke="#000" stroke-dasharray="0 18 12 2000"/>
    <circle r="6" stroke="#000"/>
  </g>
</g>
<g transform="translate(0 352)" id="9">
  <rect width="512" height="304" fill="#000" stroke="#fff"/>
</g>
<g transform="translate(0 664)" id="11">
  <rect width="80" height="80" fill="#000" stroke="#fff"/>
  <g transform="scale(5 5)" id="12">
    <rect x="7" y="7" width="2" height="2"/>
    <rect x="3" y="5" width="2" height="6"/>
    <rect x="11" y="5" width="2" height="6"/>
    <rect x="5" y="3" width="6" height="2"/>
    <rect x="5" y="11" width="6" height="2"/>
  </g>
</g>
<g transform="translate(80 664)" id="13">
  <rect width="240" height="40" fill="#000" stroke="#fff"/>
  <g transform="translate(7 14.5) scale(.4 .36)">
    <text id="14">0b5vr GLSL Techno Live Set</text>
    <text id="15" y="24">A WebGL 64KB Intro - 7m20s - 140bpm</text>
    <text id="16" y="48">Appeared in the Revision 2023 PC 64K Intro Compo</text>
  </g>
</g>
<g transform="translate(80 704)" id="17">
  <rect width="240" height="40" fill="#000" stroke="#fff"/>
  <g transform="translate(24 20) scale(1 .8)" fill="#000" stroke="#fff" id="18">
    <circle r="15"/>
    <circle r="10" transform="scale(1 1.5)"/>
    <circle r="5" transform="scale(1 3)"/>
    <line y1="-15" y2="15"/>
    <line x1="-15" x2="15"/>
    <line x1="-13" y1="-7" x2="13" y2="-7"/>
    <line x1="-13" y1="7" x2="13" y2="7"/>
    <g id="19">
      <line x1="15" y1="-15" x2="-15" y2="15" stroke-width="6" stroke="#000"/>
      <line x1="15" y1="-15" x2="-15" y2="15"/>
    </g>
  </g>
  <g transform="translate(48 18) scale(.4 .6)" id="18">
    <text id="20">MAKE SURE YOUR COMPO MACHINE IS</text>
    <text id="21" x="5" y="24">DISCONNECTED FROM THE INTERNET</text>
  </g>
</g>
<g transform="translate(328 664)" id="22">
  <rect width="184" height="28" fill="#000" stroke="#fff"/>
</g>
<g transform="translate(380 723)" id="24">
  <g transform="scale(2 1)">
    <circle r="19"/>
    <circle r="17" cx="3" fill="#000"/>
  </g>
  <text x="-22" y="8">Web</text>
  <text x="28" y="8" font-weight="bold">GL</text>
</g>
<g transform="translate(464 704)" id="25">
  <rect width="40" height="40"/>
  <text x="16" y="38" fill="#000" font-family="Verdana" font-weight="bold" transform="scale(.8 1)">TS</text>
</g>
</svg>