<svg viewBox="-1 -1 513 769" xmlns="http://www.w3.org/2000/svg" fill="#fff" font-size="24" font-family="Arial"><filter id="f"><feGaussianBlur stdDeviation="4"/></filter><g transform="translate(0 192)" id="4"><path d="M50 109C16 109 0 92 0 64s16-45 50-45c33 0 49 17 49 45s-16 45-49 45Zm0-22c9 0 14-5 14-23s-5-23-14-23c-10 0-15 5-15 23s5 23 15 23Zm138-26c11 3 18 12 18 20 0 16-12 26-40 26h-57V21h56c28 0 37 11 37 22 0 8-5 15-14 18Zm-25 25c6 0 8-2 8-6s-2-6-8-6h-21v12h21Zm-4-44h-17v12h17c5 0 8-2 8-6s-3-6-8-6Zm105 8c27 0 37 14 37 27 0 21-20 32-44 32-23 0-42-10-45-28h32c1 4 5 7 13 7 9 0 13-4 13-11 0-6-4-10-13-10-7 0-11 2-13 5h-31l11-51h73v22h-47l-3 10c5-2 10-3 17-3Zm114-29h34l-35 86h-41l-35-86h34l12 32 10 29 10-29 11-32Zm131 77 3 9h-34c-2-3-2-5-2-9l-1-8c0-9-3-11-13-11h-12v28h-34V21h53c31 0 40 12 40 25 0 11-5 17-16 21 10 3 14 9 15 18l1 13Zm-46-39c8 0 12-2 12-8s-4-9-12-9h-13v17h13Z" fill="#000" stroke="#fff"/></g><g transform="translate(0 144)" id="3"><path d="M50 109C16 109 0 92 0 64s16-45 50-45c33 0 49 17 49 45s-16 45-49 45Zm0-22c9 0 14-5 14-23s-5-23-14-23c-10 0-15 5-15 23s5 23 15 23Zm138-26c11 3 18 12 18 20 0 16-12 26-40 26h-57V21h56c28 0 37 11 37 22 0 8-5 15-14 18Zm-25 25c6 0 8-2 8-6s-2-6-8-6h-21v12h21Zm-4-44h-17v12h17c5 0 8-2 8-6s-3-6-8-6Zm105 8c27 0 37 14 37 27 0 21-20 32-44 32-23 0-42-10-45-28h32c1 4 5 7 13 7 9 0 13-4 13-11 0-6-4-10-13-10-7 0-11 2-13 5h-31l11-51h73v22h-47l-3 10c5-2 10-3 17-3Zm114-29h34l-35 86h-41l-35-86h34l12 32 10 29 10-29 11-32Zm131 77 3 9h-34c-2-3-2-5-2-9l-1-8c0-9-3-11-13-11h-12v28h-34V21h53c31 0 40 12 40 25 0 11-5 17-16 21 10 3 14 9 15 18l1 13Zm-46-39c8 0 12-2 12-8s-4-9-12-9h-13v17h13Z" stroke-width="8" stroke="#000"/><path d="M50 109C16 109 0 92 0 64s16-45 50-45c33 0 49 17 49 45s-16 45-49 45Zm0-22c9 0 14-5 14-23s-5-23-14-23c-10 0-15 5-15 23s5 23 15 23Zm138-26c11 3 18 12 18 20 0 16-12 26-40 26h-57V21h56c28 0 37 11 37 22 0 8-5 15-14 18Zm-25 25c6 0 8-2 8-6s-2-6-8-6h-21v12h21Zm-4-44h-17v12h17c5 0 8-2 8-6s-3-6-8-6Zm105 8c27 0 37 14 37 27 0 21-20 32-44 32-23 0-42-10-45-28h32c1 4 5 7 13 7 9 0 13-4 13-11 0-6-4-10-13-10-7 0-11 2-13 5h-31l11-51h73v22h-47l-3 10c5-2 10-3 17-3Zm114-29h34l-35 86h-41l-35-86h34l12 32 10 29 10-29 11-32Zm131 77 3 9h-34c-2-3-2-5-2-9l-1-8c0-9-3-11-13-11h-12v28h-34V21h53c31 0 40 12 40 25 0 11-5 17-16 21 10 3 14 9 15 18l1 13Zm-46-39c8 0 12-2 12-8s-4-9-12-9h-13v17h13Z" fill="#000" stroke="#fff"/></g><g transform="translate(0 96)" id="2"><path d="M50 109C16 109 0 92 0 64s16-45 50-45c33 0 49 17 49 45s-16 45-49 45Zm0-22c9 0 14-5 14-23s-5-23-14-23c-10 0-15 5-15 23s5 23 15 23Zm138-26c11 3 18 12 18 20 0 16-12 26-40 26h-57V21h56c28 0 37 11 37 22 0 8-5 15-14 18Zm-25 25c6 0 8-2 8-6s-2-6-8-6h-21v12h21Zm-4-44h-17v12h17c5 0 8-2 8-6s-3-6-8-6Zm105 8c27 0 37 14 37 27 0 21-20 32-44 32-23 0-42-10-45-28h32c1 4 5 7 13 7 9 0 13-4 13-11 0-6-4-10-13-10-7 0-11 2-13 5h-31l11-51h73v22h-47l-3 10c5-2 10-3 17-3Zm114-29h34l-35 86h-41l-35-86h34l12 32 10 29 10-29 11-32Zm131 77 3 9h-34c-2-3-2-5-2-9l-1-8c0-9-3-11-13-11h-12v28h-34V21h53c31 0 40 12 40 25 0 11-5 17-16 21 10 3 14 9 15 18l1 13Zm-46-39c8 0 12-2 12-8s-4-9-12-9h-13v17h13Z" stroke-width="8" stroke="#000"/><path d="M50 109C16 109 0 92 0 64s16-45 50-45c33 0 49 17 49 45s-16 45-49 45Zm0-22c9 0 14-5 14-23s-5-23-14-23c-10 0-15 5-15 23s5 23 15 23Zm138-26c11 3 18 12 18 20 0 16-12 26-40 26h-57V21h56c28 0 37 11 37 22 0 8-5 15-14 18Zm-25 25c6 0 8-2 8-6s-2-6-8-6h-21v12h21Zm-4-44h-17v12h17c5 0 8-2 8-6s-3-6-8-6Zm105 8c27 0 37 14 37 27 0 21-20 32-44 32-23 0-42-10-45-28h32c1 4 5 7 13 7 9 0 13-4 13-11 0-6-4-10-13-10-7 0-11 2-13 5h-31l11-51h73v22h-47l-3 10c5-2 10-3 17-3Zm114-29h34l-35 86h-41l-35-86h34l12 32 10 29 10-29 11-32Zm131 77 3 9h-34c-2-3-2-5-2-9l-1-8c0-9-3-11-13-11h-12v28h-34V21h53c31 0 40 12 40 25 0 11-5 17-16 21 10 3 14 9 15 18l1 13Zm-46-39c8 0 12-2 12-8s-4-9-12-9h-13v17h13Z" fill="#000" stroke="#fff"/></g><g transform="translate(0 48)" id="1"><path d="M50 109C16 109 0 92 0 64s16-45 50-45c33 0 49 17 49 45s-16 45-49 45Zm0-22c9 0 14-5 14-23s-5-23-14-23c-10 0-15 5-15 23s5 23 15 23Zm138-26c11 3 18 12 18 20 0 16-12 26-40 26h-57V21h56c28 0 37 11 37 22 0 8-5 15-14 18Zm-25 25c6 0 8-2 8-6s-2-6-8-6h-21v12h21Zm-4-44h-17v12h17c5 0 8-2 8-6s-3-6-8-6Zm105 8c27 0 37 14 37 27 0 21-20 32-44 32-23 0-42-10-45-28h32c1 4 5 7 13 7 9 0 13-4 13-11 0-6-4-10-13-10-7 0-11 2-13 5h-31l11-51h73v22h-47l-3 10c5-2 10-3 17-3Zm114-29h34l-35 86h-41l-35-86h34l12 32 10 29 10-29 11-32Zm131 77 3 9h-34c-2-3-2-5-2-9l-1-8c0-9-3-11-13-11h-12v28h-34V21h53c31 0 40 12 40 25 0 11-5 17-16 21 10 3 14 9 15 18l1 13Zm-46-39c8 0 12-2 12-8s-4-9-12-9h-13v17h13Z" stroke-width="8" stroke="#000"/><path d="M50 109C16 109 0 92 0 64s16-45 50-45c33 0 49 17 49 45s-16 45-49 45Zm0-22c9 0 14-5 14-23s-5-23-14-23c-10 0-15 5-15 23s5 23 15 23Zm138-26c11 3 18 12 18 20 0 16-12 26-40 26h-57V21h56c28 0 37 11 37 22 0 8-5 15-14 18Zm-25 25c6 0 8-2 8-6s-2-6-8-6h-21v12h21Zm-4-44h-17v12h17c5 0 8-2 8-6s-3-6-8-6Zm105 8c27 0 37 14 37 27 0 21-20 32-44 32-23 0-42-10-45-28h32c1 4 5 7 13 7 9 0 13-4 13-11 0-6-4-10-13-10-7 0-11 2-13 5h-31l11-51h73v22h-47l-3 10c5-2 10-3 17-3Zm114-29h34l-35 86h-41l-35-86h34l12 32 10 29 10-29 11-32Zm131 77 3 9h-34c-2-3-2-5-2-9l-1-8c0-9-3-11-13-11h-12v28h-34V21h53c31 0 40 12 40 25 0 11-5 17-16 21 10 3 14 9 15 18l1 13Zm-46-39c8 0 12-2 12-8s-4-9-12-9h-13v17h13Z" fill="#000" stroke="#fff"/></g><g id="0"><path d="M50 109C16 109 0 92 0 64s16-45 50-45c33 0 49 17 49 45s-16 45-49 45Zm0-22c9 0 14-5 14-23s-5-23-14-23c-10 0-15 5-15 23s5 23 15 23Zm138-26c11 3 18 12 18 20 0 16-12 26-40 26h-57V21h56c28 0 37 11 37 22 0 8-5 15-14 18Zm-25 25c6 0 8-2 8-6s-2-6-8-6h-21v12h21Zm-4-44h-17v12h17c5 0 8-2 8-6s-3-6-8-6Zm105 8c27 0 37 14 37 27 0 21-20 32-44 32-23 0-42-10-45-28h32c1 4 5 7 13 7 9 0 13-4 13-11 0-6-4-10-13-10-7 0-11 2-13 5h-31l11-51h73v22h-47l-3 10c5-2 10-3 17-3Zm114-29h34l-35 86h-41l-35-86h34l12 32 10 29 10-29 11-32Zm131 77 3 9h-34c-2-3-2-5-2-9l-1-8c0-9-3-11-13-11h-12v28h-34V21h53c31 0 40 12 40 25 0 11-5 17-16 21 10 3 14 9 15 18l1 13Zm-46-39c8 0 12-2 12-8s-4-9-12-9h-13v17h13Z" stroke-width="8" stroke="#000"/><path d="M50 109C16 109 0 92 0 64s16-45 50-45c33 0 49 17 49 45s-16 45-49 45Zm0-22c9 0 14-5 14-23s-5-23-14-23c-10 0-15 5-15 23s5 23 15 23Zm138-26c11 3 18 12 18 20 0 16-12 26-40 26h-57V21h56c28 0 37 11 37 22 0 8-5 15-14 18Zm-25 25c6 0 8-2 8-6s-2-6-8-6h-21v12h21Zm-4-44h-17v12h17c5 0 8-2 8-6s-3-6-8-6Zm105 8c27 0 37 14 37 27 0 21-20 32-44 32-23 0-42-10-45-28h32c1 4 5 7 13 7 9 0 13-4 13-11 0-6-4-10-13-10-7 0-11 2-13 5h-31l11-51h73v22h-47l-3 10c5-2 10-3 17-3Zm114-29h34l-35 86h-41l-35-86h34l12 32 10 29 10-29 11-32Zm131 77 3 9h-34c-2-3-2-5-2-9l-1-8c0-9-3-11-13-11h-12v28h-34V21h53c31 0 40 12 40 25 0 11-5 17-16 21 10 3 14 9 15 18l1 13Zm-46-39c8 0 12-2 12-8s-4-9-12-9h-13v17h13Z"/></g><g transform="translate(0 312)"><rect width="512" height="32" id="5"/><path d="M54 53c-16 0-23-6-23-15h14c0 5 4 6 10 6 5 0 7-1 7-4 0-2-2-3-8-4h-4c-12-2-18-7-18-14 0-8 6-14 21-14 14 0 22 5 23 15H62c-1-4-3-5-9-5-4 0-6 1-6 3 0 3 2 4 7 4l5 1c12 2 18 6 18 13 0 10-9 14-23 14Zm51 0c-13 0-24-6-24-17V9h15v27c0 5 4 7 9 7 6 0 9-2 9-7V9h15v27c0 11-10 17-24 17Zm64-44h14v43h-15l-12-15-7-11v26h-14V9h16l11 16 7 10V9Zm76 43-2-5h-21l-2 5h-15l19-43h17l20 43h-16Zm-19-15h13l-4-10-3-7-2 7-4 10Zm63-28c13 0 21 6 21 15s-8 15-21 15h-10v13h-14V9h24Zm-1 20c4 0 7-1 7-5 0-3-3-4-7-4h-9v9h9Zm72 19 1 4h-15l-1-4-1-5c0-5-3-6-7-6h-7v15h-15V9h26c14 0 19 6 19 13 0 4-2 8-8 10 6 2 7 6 7 10l1 6Zm-30-19h8c5 0 7-2 7-5s-2-5-7-5h-8v10Zm36 23V9h14v43h-14Zm37-10h23v10h-38V9h15v33Zm79-30c6 3 9 9 9 18 0 15-8 23-23 23-11 0-19-4-20-12h13c1 3 3 4 7 4 6 0 9-3 9-11-2 2-7 4-12 4-12 0-18-7-18-14 0-10 9-16 21-16 5 0 10 2 14 4Zm-14 18c5 0 8-3 8-6 0-4-3-6-8-6s-7 2-7 6c0 3 2 6 7 6Zm71-21v11h-15v32h-15V20h-16V9h46Zm38 0h14v43h-14V36h-19v16h-14V9h14v16h19V9Zm70-3c20 0 33 10 33 24 0 9-6 16-16 16-6 0-9-2-11-6-2 4-6 5-10 5-7 0-13-4-13-13s6-13 13-13c4 0 7 1 9 3v-3h11v16c0 2 1 3 3 3 3 0 5-4 5-8 0-10-8-17-24-17-14 0-23 8-23 19 0 12 10 19 24 19l16-2v6c-5 2-11 3-16 3-20 0-33-11-33-26 0-14 12-26 32-26Zm0 32c4 0 5-2 5-6s-1-6-5-6-5 2-5 6 1 6 5 6Zm98-18h-27v6h25v10h-25v6h27v10h-41V9h41v11Zm80-11h15l-14 43h-17l-3-12-3-16-4 16-3 12h-17L765 9h15l4 13 4 17 4-17 3-13h15l3 13 4 17 4-17 4-13Zm60 11h-27v6h25v10h-25v6h27v10h-42V9h42v11Zm50 28 2 4h-16l-1-4v-5c0-5-3-6-7-6h-8v15h-15V9h26c15 0 20 6 20 13 0 4-3 8-8 10 6 2 7 6 7 10v6Zm-30-19h9c5 0 7-2 7-5s-2-5-7-5h-9v10Zm88-20-20 18 20 25h-17l-14-17-6 5v12h-15V9h15v17l19-17h18Z" fill="#000" id="6" transform="scale(.5.5)"/></g><g transform="translate(456 260)" stroke-width="6" id="7"><circle r="58" fill="#000" filter="url(#f)"/><circle r="54" fill="#fff"/><g id="8"><circle r="41" stroke="#000" stroke-dasharray="0 80 10 120 60"/><circle r="37" stroke="#000"/><circle r="32" stroke="#000" stroke-dasharray="10 10 6 15 15 15 30 30 15 10 6 60"/><circle r="22" stroke="#000"/><circle r="19" stroke="#000" stroke-dasharray="30 23 20 5 28 5 60"/><circle r="14" stroke="#000" stroke-dasharray="0 8 8 27 5 17 10 2000"/><circle r="11" stroke="#000" stroke-dasharray="0 18 12 2000"/><circle r="6" stroke="#000"/></g></g><g transform="translate(0 352)" id="9"><rect width="512" height="304" fill="#000" stroke="#fff"/></g><g transform="translate(0 664)" id="11"><rect width="80" height="80" fill="#000" stroke="#fff"/><g transform="scale(5 5)" id="12"><rect x="7" y="7" width="2" height="2"/><rect x="3" y="5" width="2" height="6"/><rect x="11" y="5" width="2" height="6"/><rect x="5" y="3" width="6" height="2"/><rect x="5" y="11" width="6" height="2"/></g></g><g transform="translate(80 664)" id="13"><rect width="240" height="40" fill="#000" stroke="#fff"/><g transform="translate(7 14) scale(.4 .36)"><text id="14">0b5vr GLSL Techno Live Set</text><text id="15" y="25">A WebGL 64KB Intro - 7m20s - 140bpm</text><text id="16" y="50">Appeared in the Revision 2023 PC 64K Intro Compo</text></g></g><g transform="translate(80 704)" id="17"><rect width="240" height="40" fill="#000" stroke="#fff"/><g transform="translate(24 20) scale(1 .8)" fill="#000" stroke="#fff" id="18"><circle r="15"/><circle r="10" transform="scale(1 1.4)"/><circle r="5" transform="scale(1 2.8)"/><line y1="-15" y2="15"/><line x1="-15" x2="15"/><line x1="-13" y1="-7" x2="13" y2="-7"/><line x1="-13" y1="7" x2="13" y2="7"/><g id="19"><line x1="15" y1="-15" x2="-15" y2="15" stroke-width="6" stroke="#000"/><line x1="15" y1="-15" x2="-15" y2="15"/></g></g><g transform="translate(48 18) scale(.4 .6)" id="18"><text id="20">MAKE SURE YOUR COMPO MACHINE IS</text><text id="21" x="5" y="24">DISCONNECTED FROM THE INTERNET</text></g></g><g transform="translate(328 664)" id="22"><rect width="184" height="28" fill="#000" stroke="#fff"/></g><g transform="translate(380 723)" id="24"><g transform="scale(2 1)"><circle r="19"/><circle r="16" cx="4" fill="#000"/></g><text x="-21" y="8">Web</text><text x="29" y="8" font-weight="bold">GL</text></g><g transform="translate(464 704)" id="25"><rect width="40" height="40" rx="4" ry="4"/><text x="11.5" y="37.5" fill="#000" font-family="Verdana" font-weight="bold" transform="scale(.85 1)">TS</text></g></svg>