<svg viewBox="-1 -1 513 769" xmlns="http://www.w3.org/2000/svg" fill="#fff" font-size="24" font-family="Arial"><filter id="f"><feGaussianBlur stdDeviation="4"/></filter><g transform="translate(0 192)" id="4"><path d="M50 109C16 109 0 92 0 64s16-45 50-45c33 0 49 17 49 45s-16 45-49 45Zm0-22c9 0 14-5 14-23s-5-23-14-23c-10 0-15 5-15 23s5 23 15 23Zm138-26c11 3 18 12 18 20 0 16-12 26-40 26h-57V21h56c28 0 37 11 37 22 0 8-5 15-14 18Zm-25 25c6 0 8-2 8-6s-2-6-8-6h-21v12h21Zm-4-44h-17v12h17c5 0 8-2 8-6s-3-6-8-6Zm105 8c27 0 37 14 37 27 0 21-20 32-44 32-23 0-42-10-45-28h32c1 4 5 7 13 7 9 0 13-4 13-11 0-6-4-10-13-10-7 0-11 2-13 5h-31l11-51h73v22h-47l-3 10c5-2 10-3 17-3Zm114-29h34l-35 86h-41l-35-86h34l12 32 10 29 10-29 11-32Zm131 77 3 9h-34c-2-3-2-5-2-9l-1-8c0-9-3-11-13-11h-12v28h-34V21h53c31 0 40 12 40 25 0 11-5 17-16 21 10 3 14 9 15 18l1 13Zm-46-39c8 0 12-2 12-8s-4-9-12-9h-13v17h13Z" fill="#000" stroke="#fff"/></g><g transform="translate(0 144)" id="3"><path d="M50 109C16 109 0 92 0 64s16-45 50-45c33 0 49 17 49 45s-16 45-49 45Zm0-22c9 0 14-5 14-23s-5-23-14-23c-10 0-15 5-15 23s5 23 15 23Zm138-26c11 3 18 12 18 20 0 16-12 26-40 26h-57V21h56c28 0 37 11 37 22 0 8-5 15-14 18Zm-25 25c6 0 8-2 8-6s-2-6-8-6h-21v12h21Zm-4-44h-17v12h17c5 0 8-2 8-6s-3-6-8-6Zm105 8c27 0 37 14 37 27 0 21-20 32-44 32-23 0-42-10-45-28h32c1 4 5 7 13 7 9 0 13-4 13-11 0-6-4-10-13-10-7 0-11 2-13 5h-31l11-51h73v22h-47l-3 10c5-2 10-3 17-3Zm114-29h34l-35 86h-41l-35-86h34l12 32 10 29 10-29 11-32Zm131 77 3 9h-34c-2-3-2-5-2-9l-1-8c0-9-3-11-13-11h-12v28h-34V21h53c31 0 40 12 40 25 0 11-5 17-16 21 10 3 14 9 15 18l1 13Zm-46-39c8 0 12-2 12-8s-4-9-12-9h-13v17h13Z" stroke-width="8" stroke="#000"/><path d="M50 109C16 109 0 92 0 64s16-45 50-45c33 0 49 17 49 45s-16 45-49 45Zm0-22c9 0 14-5 14-23s-5-23-14-23c-10 0-15 5-15 23s5 23 15 23Zm138-26c11 3 18 12 18 20 0 16-12 26-40 26h-57V21h56c28 0 37 11 37 22 0 8-5 15-14 18Zm-25 25c6 0 8-2 8-6s-2-6-8-6h-21v12h21Zm-4-44h-17v12h17c5 0 8-2 8-6s-3-6-8-6Zm105 8c27 0 37 14 37 27 0 21-20 32-44 32-23 0-42-10-45-28h32c1 4 5 7 13 7 9 0 13-4 13-11 0-6-4-10-13-10-7 0-11 2-13 5h-31l11-51h73v22h-47l-3 10c5-2 10-3 17-3Zm114-29h34l-35 86h-41l-35-86h34l12 32 10 29 10-29 11-32Zm131 77 3 9h-34c-2-3-2-5-2-9l-1-8c0-9-3-11-13-11h-12v28h-34V21h53c31 0 40 12 40 25 0 11-5 17-16 21 10 3 14 9 15 18l1 13Zm-46-39c8 0 12-2 12-8s-4-9-12-9h-13v17h13Z" fill="#000" stroke="#fff"/></g><g transform="translate(0 96)" id="2"><path d="M50 109C16 109 0 92 0 64s16-45 50-45c33 0 49 17 49 45s-16 45-49 45Zm0-22c9 0 14-5 14-23s-5-23-14-23c-10 0-15 5-15 23s5 23 15 23Zm138-26c11 3 18 12 18 20 0 16-12 26-40 26h-57V21h56c28 0 37 11 37 22 0 8-5 15-14 18Zm-25 25c6 0 8-2 8-6s-2-6-8-6h-21v12h21Zm-4-44h-17v12h17c5 0 8-2 8-6s-3-6-8-6Zm105 8c27 0 37 14 37 27 0 21-20 32-44 32-23 0-42-10-45-28h32c1 4 5 7 13 7 9 0 13-4 13-11 0-6-4-10-13-10-7 0-11 2-13 5h-31l11-51h73v22h-47l-3 10c5-2 10-3 17-3Zm114-29h34l-35 86h-41l-35-86h34l12 32 10 29 10-29 11-32Zm131 77 3 9h-34c-2-3-2-5-2-9l-1-8c0-9-3-11-13-11h-12v28h-34V21h53c31 0 40 12 40 25 0 11-5 17-16 21 10 3 14 9 15 18l1 13Zm-46-39c8 0 12-2 12-8s-4-9-12-9h-13v17h13Z" stroke-width="8" stroke="#000"/><path d="M50 109C16 109 0 92 0 64s16-45 50-45c33 0 49 17 49 45s-16 45-49 45Zm0-22c9 0 14-5 14-23s-5-23-14-23c-10 0-15 5-15 23s5 23 15 23Zm138-26c11 3 18 12 18 20 0 16-12 26-40 26h-57V21h56c28 0 37 11 37 22 0 8-5 15-14 18Zm-25 25c6 0 8-2 8-6s-2-6-8-6h-21v12h21Zm-4-44h-17v12h17c5 0 8-2 8-6s-3-6-8-6Zm105 8c27 0 37 14 37 27 0 21-20 32-44 32-23 0-42-10-45-28h32c1 4 5 7 13 7 9 0 13-4 13-11 0-6-4-10-13-10-7 0-11 2-13 5h-31l11-51h73v22h-47l-3 10c5-2 10-3 17-3Zm114-29h34l-35 86h-41l-35-86h34l12 32 10 29 10-29 11-32Zm131 77 3 9h-34c-2-3-2-5-2-9l-1-8c0-9-3-11-13-11h-12v28h-34V21h53c31 0 40 12 40 25 0 11-5 17-16 21 10 3 14 9 15 18l1 13Zm-46-39c8 0 12-2 12-8s-4-9-12-9h-13v17h13Z" fill="#000" stroke="#fff"/></g><g transform="translate(0 48)" id="1"><path d="M50 109C16 109 0 92 0 64s16-45 50-45c33 0 49 17 49 45s-16 45-49 45Zm0-22c9 0 14-5 14-23s-5-23-14-23c-10 0-15 5-15 23s5 23 15 23Zm138-26c11 3 18 12 18 20 0 16-12 26-40 26h-57V21h56c28 0 37 11 37 22 0 8-5 15-14 18Zm-25 25c6 0 8-2 8-6s-2-6-8-6h-21v12h21Zm-4-44h-17v12h17c5 0 8-2 8-6s-3-6-8-6Zm105 8c27 0 37 14 37 27 0 21-20 32-44 32-23 0-42-10-45-28h32c1 4 5 7 13 7 9 0 13-4 13-11 0-6-4-10-13-10-7 0-11 2-13 5h-31l11-51h73v22h-47l-3 10c5-2 10-3 17-3Zm114-29h34l-35 86h-41l-35-86h34l12 32 10 29 10-29 11-32Zm131 77 3 9h-34c-2-3-2-5-2-9l-1-8c0-9-3-11-13-11h-12v28h-34V21h53c31 0 40 12 40 25 0 11-5 17-16 21 10 3 14 9 15 18l1 13Zm-46-39c8 0 12-2 12-8s-4-9-12-9h-13v17h13Z" stroke-width="8" stroke="#000"/><path d="M50 109C16 109 0 92 0 64s16-45 50-45c33 0 49 17 49 45s-16 45-49 45Zm0-22c9 0 14-5 14-23s-5-23-14-23c-10 0-15 5-15 23s5 23 15 23Zm138-26c11 3 18 12 18 20 0 16-12 26-40 26h-57V21h56c28 0 37 11 37 22 0 8-5 15-14 18Zm-25 25c6 0 8-2 8-6s-2-6-8-6h-21v12h21Zm-4-44h-17v12h17c5 0 8-2 8-6s-3-6-8-6Zm105 8c27 0 37 14 37 27 0 21-20 32-44 32-23 0-42-10-45-28h32c1 4 5 7 13 7 9 0 13-4 13-11 0-6-4-10-13-10-7 0-11 2-13 5h-31l11-51h73v22h-47l-3 10c5-2 10-3 17-3Zm114-29h34l-35 86h-41l-35-86h34l12 32 10 29 10-29 11-32Zm131 77 3 9h-34c-2-3-2-5-2-9l-1-8c0-9-3-11-13-11h-12v28h-34V21h53c31 0 40 12 40 25 0 11-5 17-16 21 10 3 14 9 15 18l1 13Zm-46-39c8 0 12-2 12-8s-4-9-12-9h-13v17h13Z" fill="#000" stroke="#fff"/></g><g id="0"><path d="M50 109C16 109 0 92 0 64s16-45 50-45c33 0 49 17 49 45s-16 45-49 45Zm0-22c9 0 14-5 14-23s-5-23-14-23c-10 0-15 5-15 23s5 23 15 23Zm138-26c11 3 18 12 18 20 0 16-12 26-40 26h-57V21h56c28 0 37 11 37 22 0 8-5 15-14 18Zm-25 25c6 0 8-2 8-6s-2-6-8-6h-21v12h21Zm-4-44h-17v12h17c5 0 8-2 8-6s-3-6-8-6Zm105 8c27 0 37 14 37 27 0 21-20 32-44 32-23 0-42-10-45-28h32c1 4 5 7 13 7 9 0 13-4 13-11 0-6-4-10-13-10-7 0-11 2-13 5h-31l11-51h73v22h-47l-3 10c5-2 10-3 17-3Zm114-29h34l-35 86h-41l-35-86h34l12 32 10 29 10-29 11-32Zm131 77 3 9h-34c-2-3-2-5-2-9l-1-8c0-9-3-11-13-11h-12v28h-34V21h53c31 0 40 12 40 25 0 11-5 17-16 21 10 3 14 9 15 18l1 13Zm-46-39c8 0 12-2 12-8s-4-9-12-9h-13v17h13Z" stroke-width="8" stroke="#000"/><path d="M50 109C16 109 0 92 0 64s16-45 50-45c33 0 49 17 49 45s-16 45-49 45Zm0-22c9 0 14-5 14-23s-5-23-14-23c-10 0-15 5-15 23s5 23 15 23Zm138-26c11 3 18 12 18 20 0 16-12 26-40 26h-57V21h56c28 0 37 11 37 22 0 8-5 15-14 18Zm-25 25c6 0 8-2 8-6s-2-6-8-6h-21v12h21Zm-4-44h-17v12h17c5 0 8-2 8-6s-3-6-8-6Zm105 8c27 0 37 14 37 27 0 21-20 32-44 32-23 0-42-10-45-28h32c1 4 5 7 13 7 9 0 13-4 13-11 0-6-4-10-13-10-7 0-11 2-13 5h-31l11-51h73v22h-47l-3 10c5-2 10-3 17-3Zm114-29h34l-35 86h-41l-35-86h34l12 32 10 29 10-29 11-32Zm131 77 3 9h-34c-2-3-2-5-2-9l-1-8c0-9-3-11-13-11h-12v28h-34V21h53c31 0 40 12 40 25 0 11-5 17-16 21 10 3 14 9 15 18l1 13Zm-46-39c8 0 12-2 12-8s-4-9-12-9h-13v17h13Z"/></g><g transform="translate(0 312)"><rect width="512" height="32" id="5"/><path d="M53 27c-5 0-7-1-8-4h5l3 1h2l-2-1-2-1c-3 0-5-1-5-4 0-2 1-4 7-4 4 0 6 1 7 4h-5l-2-1-2 1 1 1h2c4 0 6 2 6 4 0 3-2 4-7 4Zm19 0-1-2h-6v2h-5l5-13h6l6 13h-5Zm-5-4h3l-1-3-1-2v2l-1 3Zm22-9v4h-4v9h-5v-9h-5v-4h14Zm30 1c3 1 5 3 5 6 0 4-5 7-13 7-7 0-12-3-12-7 0-3 1-5 4-6-2-1-3-2-3-5 0-4 4-6 11-6s12 2 12 6c0 3-1 4-4 5Zm-8 7c3 0 4-1 4-2 0-2-1-2-4-2-2 0-3 0-3 2 0 1 1 2 3 2Zm0-13c-2 0-3 1-3 2s1 2 3 2l4-2-4-2Zm43 18-1-3h-10l-1 3h-9l9-23h11l10 23h-9Zm-9-8h6l-2-5-1-4-1 4-2 5Zm33-15c7 0 11 4 11 9 0 4-4 8-11 8h-5v6h-8V4h13Zm-1 11c2 0 3-1 3-2 0-2-1-3-3-3h-4v5h4Zm40 10v2h-9l-1-2v-2c0-3-1-3-3-3h-3v7h-9V4h14c8 0 10 4 10 7s-1 5-4 6c3 0 4 2 4 4l1 4Zm-13-11c2 0 3 0 3-2 0-1-1-2-3-2h-3v4h3Zm15 13V4h9v23h-9Zm21-6h13v6h-22V4h9v17Zm42-10h7v8l1 1c2 0 3-2 3-4 0-5-5-8-13-8-7 0-12 3-12 9 0 7 5 10 13 10l9-1v4l-9 1c-12 0-18-5-18-14 0-7 7-13 18-13 10 0 17 5 17 12 0 5-3 9-9 9-3 0-5-1-6-3-1 2-3 3-5 3-4 0-7-3-7-8 0-4 3-7 7-7l4 2v-1Zm-2 9c2 0 2-1 2-3s0-2-2-2c-1 0-2 0-2 2s1 3 2 3Zm53-9h-15v2h14v6h-14v2h15v6h-24V4h24v7Zm41-7h9l-7 23h-10l-2-7-1-6-2 6-2 7h-9l-8-23h9l2 7 2 8 2-8 1-7h9l2 7 1 8 2-8 2-7Zm34 7h-15v2h13v6h-13v2h15v6h-24V4h24v7Zm27 14 1 2h-10v-4c0-3-1-3-4-3h-3v7h-9V4h14c9 0 11 4 11 7s-1 5-4 6c2 0 3 2 4 4v4Zm-12-11c2 0 3 0 3-2 0-1-1-2-3-2h-4v4h4Zm33 13-6-8-3 3v5h-9V4h9v9l8-9h11l-10 10 11 13h-11Z" fill="#000" id="6"/></g><g transform="translate(456 260)" stroke-width="6" id="7"><circle r="58" fill="#000" filter="url(#f)"/><circle r="54" fill="#fff"/><g id="8"><circle r="41" stroke="#000" stroke-dasharray="0 80 10 120 60"/><circle r="37" stroke="#000"/><circle r="32" stroke="#000" stroke-dasharray="10 10 6 15 15 15 30 30 15 10 6 60"/><circle r="22" stroke="#000"/><circle r="19" stroke="#000" stroke-dasharray="30 23 20 5 28 5 60"/><circle r="14" stroke="#000" stroke-dasharray="0 8 8 27 5 17 10 2000"/><circle r="11" stroke="#000" stroke-dasharray="0 18 12 2000"/><circle r="6" stroke="#000"/></g></g><g transform="translate(0 352)" id="9"><rect width="512" height="304" fill="#000" stroke="#fff"/></g><g transform="translate(0 664)" id="11"><rect width="80" height="80" fill="#000" stroke="#fff"/><g transform="scale(5 5)" id="12"><rect x="7" y="7" width="2" height="2"/><rect x="3" y="5" width="2" height="6"/><rect x="11" y="5" width="2" height="6"/><rect x="5" y="3" width="6" height="2"/><rect x="5" y="11" width="6" height="2"/></g></g><g transform="translate(80 664)" id="13"><rect width="240" height="40" fill="#000" stroke="#fff"/><g transform="translate(7 14.5) scale(.4 .36)"><text id="14">0b5vr GLSL Techno Live Set</text><text id="15" y="24">A WebGL 64KB Intro - 7m20s - 140bpm</text><text id="16" y="48">Appeared in the Revision 2023 PC 64K Intro Compo</text></g></g><g transform="translate(80 704)" id="17"><rect width="240" height="40" fill="#000" stroke="#fff"/><g transform="translate(24 20) scale(1 .8)" fill="#000" stroke="#fff" id="18"><circle r="15"/><circle r="10" transform="scale(1 1.5)"/><circle r="5" transform="scale(1 3)"/><line y1="-15" y2="15"/><line x1="-15" x2="15"/><line x1="-11" y1="-7" x2="11" y2="-7"/><line x1="-11" y1="7" x2="11" y2="7"/><g id="19"><line x1="15" y1="-15" x2="-15" y2="15" stroke-width="6" stroke="#000"/><line x1="15" y1="-15" x2="-15" y2="15"/></g></g><g transform="translate(48 18) scale(.4 .6)" id="18"><text id="20">MAKE SURE YOUR COMPO MACHINE IS</text><text id="21" x="5" y="24">DISCONNECTED FROM THE INTERNET</text></g></g><g transform="translate(328 664)" id="22"><rect width="184" height="28" fill="#000" stroke="#fff"/></g><g transform="translate(380 723)" id="24"><g transform="scale(2 1)"><circle r="19"/><circle r="17" cx="3" fill="#000"/></g><text x="-22" y="8">Web</text><text x="28" y="8" font-weight="bold">GL</text></g><g transform="translate(464 704)" id="25"><rect width="40" height="40"/><text x="16" y="38" fill="#000" font-family="Verdana" font-weight="bold" transform="scale(.8 1)">TS</text></g></svg>