<svg width="1024" height="512" viewBox="0 0 1024 512" xmlns="http://www.w3.org/2000/svg"><path d="M525 261c2 0 4-1 4-5 0-10 0-16-9-16l-18 3h-1c-3 0-5-2-5-5 0-2 2-5 5-5l21-3c16 0 18 8 18 27 0 9-7 13-15 13h-42v16h39c8 0 13 2 13 10v13c0 9-5 10-13 10H420c-2 0-4-2-4-4s2-4 4-4h53v-16h-41c-7 0-13-2-15-10l-1-13v-2c0-8 7-9 12-9h36c-14-13-32-20-50-24-3 0-4-2-4-4 0-3 2-7 6-7 2 0 42 12 57 35v-35c0-3 2-4 5-4 2 0 5 1 5 4v35h42Zm1 37c0-2-2-3-5-3h-38v16h38c3 0 5-2 5-4v-9Zm-53-28h-43c-2 0-4 0-4 3 1 12 2 13 6 13h41v-16Zm2 69c3 0 4 2 4 4 0 3-1 5-4 5h-38l2 3v1c0 3-3 5-5 5l-4-2c-5-9-12-18-20-26l-1-2c0-3 3-6 6-6 1 0 4 1 16 18h17c3-4 4-9 6-14l4-2c3 0 6 2 6 4l-1 3-6 9h18Zm64 0c3 0 5 2 5 4 0 3-2 5-5 5h-40l1 4c0 3-2 4-5 4-2 0-3 0-4-2-4-8-10-18-17-24l-1-3c0-2 3-5 6-5 1 0 3 0 4 2l10 15h17l7-14c0-2 2-3 3-3 3 0 6 3 6 6l-7 11h20Zm166-109c3 0 5 3 5 5 0 3-2 5-5 5H582c-3 0-5-2-5-5 0-2 2-5 5-5h123Zm-8 106c3 0 4 3 4 6 0 2-1 5-4 5H590c-3 0-5-3-5-5 0-3 2-6 5-6h107Zm-7-50c3 0 5 3 5 5 0 3-2 6-5 6h-94c-3 0-4-3-4-6 0-2 1-5 4-5h94Zm104-43-33-6v27h34c9 0 13 4 13 14v27c0 10-4 14-13 14h-30c-9 0-13-4-13-14v-69h-4c-3-1-4-3-4-5s1-5 4-5h1c16 2 31 5 48 10l4-9 3-3c3 0 6 3 6 6s-7 16-14 27l-3 2c-3 0-6-3-6-5l1-2 6-9Zm5 53h-38v9c0 3 1 5 5 5h29c2 0 4-1 4-5v-9Zm0-19c0-3-2-4-4-4h-34v14h38v-10Zm63-27c0-4 0-7-5-7l-14 4h-2c-2 0-4-3-4-6 0-1 1-3 4-4l17-3c11 0 14 5 14 15v52c0 12-5 16-16 16h-21c-11 0-16-4-16-16v-75c0-3 2-4 5-4 2 0 5 1 5 4v76c0 4 2 6 6 6h21c4 0 6-2 6-6v-52Zm-55 88c3 0 5 2 5 5 0 2-2 4-5 4h-37l2 3v2c0 3-2 4-5 4l-4-3c-6-14-11-20-19-28l-1-2c0-3 3-5 6-5 5 0 16 17 17 20h13l7-14c0-2 2-3 4-3s5 2 5 5v3l-7 9h19Zm67 0c3 0 4 2 4 5 0 2-1 4-4 4h-39l1 4 1 1c0 3-3 4-5 4s-4-1-5-3c-5-12-11-19-18-26l-1-3c0-2 2-4 5-4l3 1c5 5 10 10 14 17h16l7-14c1-2 2-3 4-3 3 0 6 2 6 5 0 2-2 5-7 12h18ZM431 133c13 0 20 8 20 18s-6 15-14 17l-10 3c-5 1-8 4-8 8 0 5 4 8 11 8 6 0 11-4 11-10h9c-1 11-8 18-20 18-13 0-19-8-19-17s5-14 13-16l9-3c6-1 9-4 9-8 0-6-4-9-11-9-8 0-13 3-13 12h-9c1-14 9-21 22-21Zm63 23c0 14-8 23-18 23-12 0-19-10-19-23s7-22 19-22c9 0 15 4 17 13l-8 1c-2-4-4-7-9-7-6 0-10 5-10 13h28v2Zm-18 15c5 0 9-4 9-11h-19c1 7 4 11 10 11Zm42-37c9 0 15 6 16 16h-8c-1-6-4-9-8-9-6 0-10 6-10 15 0 10 3 15 10 15 4 0 7-3 8-8h8c-1 10-7 16-16 16-11 0-18-9-18-23s7-22 18-22Zm34 37 8-1v8l-8-1v14h-8v-14l-6 1v-8l6 1v-25c0-8 2-11 9-11h7v8h-4c-3 0-4 1-4 4v24Zm15 13h8v10h-8v-10Zm0-49h8v43h-8v-43Zm35-1c11 0 19 9 19 22 0 14-8 23-19 23s-19-9-19-23c0-13 8-22 19-22Zm0 7c-6 0-10 6-10 15s4 15 10 15c7 0 10-6 10-15s-3-15-10-15Zm47 38c-5 0-9-3-12-7v6h-8v-43h8v23c0 8 5 12 9 12 5 0 7-3 7-8v-27h8v29c0 9-4 15-12 15Zm60-45c13 0 20 7 20 18 0 8-4 13-11 15 6 2 8 7 8 12 0 10-6 16-17 16s-18-7-18-19h8c1 8 4 11 9 11 6 0 9-4 9-9s-3-8-9-8h-3v-8h5c6 0 10-4 10-10s-4-10-11-10-11 4-11 12h-9c0-12 7-20 20-20ZM269 300h-74c-4 0-8-2-10-5l-37-65c-2-3-2-8 0-11l37-64c2-4 6-6 10-6h74c4 0 8 2 10 6l37 64c2 3 2 8 0 11l-37 65c-2 3-6 5-10 5Zm3-13 34-59v-7l-34-59c-1-2-4-4-6-4h-68c-3 0-5 2-7 4l-34 59v7l34 59c2 3 4 4 7 4h68c2 0 5-1 6-4Zm-65-37h-17v-50h17v50Zm0-50v-17h50v17h-50Zm50 0h16v50h-16v-50Zm0 50v16h-50v-16h50Zm-17-17h-17v-17h17v17Zm-43 75h70v88l32-10-67 120-68-120 33 10v-88Zm70-167h-70V6h70v135Z" fill="#fff"/></svg>